<?xml version="1.0" encoding="utf-8"?>
<!-- Generator: Adobe Illustrator 18.1.1, SVG Export Plug-In . SVG Version: 6.00 Build 0)  -->
<!DOCTYPE svg PUBLIC "-//W3C//DTD SVG 1.1//EN" "http://www.w3.org/Graphics/SVG/1.1/DTD/svg11.dtd">
<svg version="1.1" id="Calque_1" xmlns="http://www.w3.org/2000/svg" xmlns:xlink="http://www.w3.org/1999/xlink" x="0px" y="0px"
	 viewBox="0 0 90 90" enable-background="new 0 0 90 90" xml:space="preserve">
<g>
	<g>
		<path fill="#3A5CA2" d="M47,36.2c0-1.5,0.2-2.4,2.5-2.4h3.2v-5.9h-5c-6.1,0-8.2,2.9-8.2,7.6v3.5h-3.8V45h3.8v17.1H47V45h5l0.7-5.9
			H47L47,36.2z"/>
	</g>
	<g>
		<path fill="#3A5CA2" d="M45,85C23,85,5,67.1,5,45S23,5,45,5c22,0,40,17.9,40,40S67,85,45,85z M45,7C24.1,7,7,24,7,45s17,38,38,38
			c20.9,0,38-17,38-38S65.9,7,45,7z"/>
	</g>
</g>
</svg>
