<?xml version="1.0" encoding="utf-8"?>
<!-- Generator: Adobe Illustrator 18.1.1, SVG Export Plug-In . SVG Version: 6.00 Build 0)  -->
<!DOCTYPE svg PUBLIC "-//W3C//DTD SVG 1.1//EN" "http://www.w3.org/Graphics/SVG/1.1/DTD/svg11.dtd">
<svg version="1.1" id="Calque_1" xmlns="http://www.w3.org/2000/svg" xmlns:xlink="http://www.w3.org/1999/xlink" x="0px" y="0px"
	 viewBox="0 0 90 90" enable-background="new 0 0 90 90" xml:space="preserve">
<g>
	<g>
		<path fill="#9D6F4F" d="M58.9,27.2c-0.1,0-0.1,0-0.2,0H31.3c-0.2,0-0.3,0.1-0.5,0.1c-1.5,0.4-2.6,1.6-2.8,3.2c0,0.1,0,0.1,0,0.2
			v28.6c0,0.2,0.1,0.4,0.1,0.5c0.3,1.5,1.6,2.7,3.1,2.9c0.1,0,0.1,0,0.2,0h27.3c0.2,0,0.4-0.1,0.5-0.1c1.4-0.3,2.5-1.5,2.8-3
			c0-0.2,0.1-0.3,0.1-0.5V30.7c0-0.2,0-0.3-0.1-0.5C61.7,28.7,60.4,27.4,58.9,27.2z M53.8,30.1c1.1,0,2.1,0,3.2,0
			c0.8,0,1.4,0.6,1.4,1.5c0,1.1,0,2.3,0,3.4c0,0.8-0.6,1.4-1.3,1.4c-0.6,0-1.1,0-1.7,0c-0.5,0-1,0-1.6,0c-0.6,0-1.2-0.4-1.4-1
			c-0.1-0.2-0.1-0.3-0.1-0.5c0-1.1,0-2.2,0-3.4C52.4,30.7,53,30.1,53.8,30.1z M45,37.8c3.9,0,7,3.3,6.9,7.4
			c-0.1,3.9-3.2,7.2-7.1,7.1c-3.7-0.1-6.8-3.3-6.8-7.3C38.1,41,41.2,37.8,45,37.8z M58.4,41.7c0,5.3,0,10.5,0,15.8
			c0,0.8-0.6,1.4-1.4,1.4c-8,0-16,0-24,0c-0.7,0-1.4-0.7-1.4-1.4c0-5.3,0-10.6,0-15.8v-0.1c1.1,0,2.2,0,3.2,0
			c-0.8,3-0.6,5.9,0.8,8.7c1,1.9,2.4,3.3,4.1,4.3c3.5,2.1,7.8,1.8,11.1-0.5c1.3-0.9,2.3-2,3.1-3.4c0.8-1.4,1.3-2.9,1.5-4.4
			c0.2-1.6,0-3.2-0.4-4.7h3.3V41.7z"/>
	</g>
	<g>
		<path fill="#9D6F4F" d="M45,85C23,85,5,67.1,5,45S23,5,45,5s40,17.9,40,40S67,85,45,85z M45,7C24.1,7,7,24,7,45s17,38,38,38
			s38-17,38-38S65.9,7,45,7z"/>
	</g>
</g>
</svg>
