<?xml version="1.0" encoding="utf-8"?>
<!-- Generator: Adobe Illustrator 18.1.1, SVG Export Plug-In . SVG Version: 6.00 Build 0)  -->
<!DOCTYPE svg PUBLIC "-//W3C//DTD SVG 1.1//EN" "http://www.w3.org/Graphics/SVG/1.1/DTD/svg11.dtd">
<svg version="1.1" id="Calque_1" xmlns="http://www.w3.org/2000/svg" xmlns:xlink="http://www.w3.org/1999/xlink" x="0px" y="0px"
	 viewBox="0 0 595.3 841.9" enable-background="new 0 0 595.3 841.9" xml:space="preserve">
<g>
	<path fill="#9D6F4F" d="M385.6,398.5h-21.8c2.6,9.9,4,20.5,2.6,31.1c-1.3,9.9-4.6,19.8-9.9,29.1c-5.3,9.3-11.9,16.5-20.5,22.5
		c-21.8,15.2-50.3,17.2-73.4,3.3c-11.2-6.6-20.5-15.9-27.1-28.4c-9.3-18.5-10.6-37.7-5.3-57.5c-6.6,0-13.9,0-21.2,0v0.7
		c0,34.4,0,69.4,0,104.5c0,4.6,4.6,9.3,9.3,9.3c52.9,0,105.8,0,158.7,0c5.3,0,9.3-4,9.3-9.3c0-35.1,0-69.4,0-104.5h-0.7V398.5z"/>
	<path fill="#9D6F4F" d="M377,322.4c-7.3,0-13.9,0-21.2,0c-5.3,0-9.3,4-9.9,9.3c0,7.9,0,15.2,0,22.5c0,1.3,0,2,0.7,3.3
		c1.3,4,5.3,6.6,9.3,6.6c4,0,7.3,0,10.6,0c4,0,7.3,0,11.2,0c4.6,0,8.6-4,8.6-9.3c0-7.3,0-15.2,0-22.5
		C386.3,326.4,382.3,322.4,377,322.4z"/>
	<path fill="#9D6F4F" d="M296.3,469.2c25.8,0.7,46.3-21.2,47-47c0.7-27.1-19.8-48.9-45.6-48.9c-25.1,0-45.6,21.2-46.3,47.6
		C251.3,447.4,271.8,468.6,296.3,469.2z"/>
	<path fill="#9D6F4F" d="M297.6,156.4c-145.5,0-264.6,118.4-264.6,264.6s119.1,264.6,264.6,264.6s264.6-118.4,264.6-264.6
		S443.2,156.4,297.6,156.4z M410.7,514.2c0,1.3-0.7,2-0.7,3.3c-2,9.9-9.3,17.9-18.5,19.8c-0.7,0-2,0.7-3.3,0.7H207.7
		c-0.7,0-0.7,0-1.3,0c-9.9-1.3-18.5-9.3-20.5-19.2c0-0.7-0.7-2-0.7-3.3V326.4c0-0.7,0-0.7,0-1.3c1.3-10.6,8.6-18.5,18.5-21.2
		c1.3,0,2-0.7,3.3-0.7h181.2c0.7,0,0.7,0,1.3,0c9.9,1.3,18.5,9.9,20.5,19.8c0.7,1.3,0.7,2,0.7,3.3V514.2z"/>
</g>
</svg>
