<?xml version="1.0" encoding="utf-8"?>
<!-- Generator: Adobe Illustrator 18.1.1, SVG Export Plug-In . SVG Version: 6.00 Build 0)  -->
<!DOCTYPE svg PUBLIC "-//W3C//DTD SVG 1.1//EN" "http://www.w3.org/Graphics/SVG/1.1/DTD/svg11.dtd">
<svg version="1.1" id="Calque_1" xmlns="http://www.w3.org/2000/svg" xmlns:xlink="http://www.w3.org/1999/xlink" x="0px" y="0px"
	 viewBox="0 0 90 90" enable-background="new 0 0 90 90" xml:space="preserve">
<g>
	<g>
		<path fill="#27BCEE" d="M44.5,37.9c0-0.3,0-0.5,0-0.7C44.5,37.5,44.5,37.8,44.5,37.9z"/>
		<path fill="#27BCEE" d="M44.4,37.2c0-0.1,0-0.1,0-0.2C44.4,37.1,44.4,37.2,44.4,37.2z"/>
		<path fill="#27BCEE" d="M44.5,38C44.5,38,44.5,38,44.5,38C44.5,38,44.5,38,44.5,38z"/>
		<path fill="#27BCEE" d="M44.4,37.1c0-0.1,0-0.2,0-0.3C44.4,36.9,44.4,37,44.4,37.1z"/>
		<path fill="#27BCEE" d="M44.5,38.1c0,0,0-0.1,0-0.1C44.5,38.1,44.5,38.1,44.5,38.1z"/>
		<path fill="#27BCEE" d="M60.9,34.2c-2.1,0.8-2.4,0.7-1.4-0.5c0.8-0.8,1.7-2.3,1.7-2.8c0-0.1-0.4,0.1-0.8,0.3
			c-0.4,0.3-1.4,0.7-2.2,0.9l-1.3,0.4l-1.2-0.9c-0.7-0.5-1.6-1-2.1-1.1c-1.3-0.4-3.2-0.3-4.3,0.1c-3.1,1.2-5,4.2-4.8,7.5l0.1,1.3
			l-1.2-0.2c-4.5-0.6-8.4-2.6-11.7-6L30,31.5l-0.4,1.2c-0.9,2.8-0.3,5.7,1.5,7.7c1,1.1,0.8,1.2-0.9,0.6c-0.6-0.2-1.1-0.4-1.2-0.3
			c-0.2,0.2,0.4,2.5,0.9,3.5c0.6,1.3,1.9,2.6,3.4,3.3l1.2,0.6l-1.4,0c-1.4,0-1.4,0-1.3,0.6c0.5,1.7,2.4,3.5,4.6,4.3l1.5,0.5
			l-1.3,0.8c-2,1.2-4.3,1.9-6.6,1.9c-1.1,0-2,0.1-2,0.2c0,0.3,3,1.7,4.8,2.3c5.2,1.7,11.5,1,16.2-1.9c3.3-2.1,6.7-6.1,8.2-10.1
			c0.8-2.1,1.7-6,1.7-7.8c0-1.2,0.1-1.4,1.5-2.8c0.8-0.8,1.6-1.7,1.7-2C62.2,33.7,62.1,33.7,60.9,34.2z"/>
		<path fill="#27BCEE" d="M44.4,36.8C44.4,36.6,44.4,36.6,44.4,36.8L44.4,36.8z"/>
	</g>
	<g>
		<path fill="#27BCEE" d="M45,85C23,85,5,67.1,5,45S23,5,45,5s40,17.9,40,40S67,85,45,85z M45,7C24.1,7,7,24,7,45s17,38,38,38
			s38-17,38-38S65.9,7,45,7z"/>
	</g>
</g>
</svg>
