<?xml version="1.0" encoding="utf-8"?>
<!-- Generator: Adobe Illustrator 18.1.1, SVG Export Plug-In . SVG Version: 6.00 Build 0)  -->
<!DOCTYPE svg PUBLIC "-//W3C//DTD SVG 1.1//EN" "http://www.w3.org/Graphics/SVG/1.1/DTD/svg11.dtd">
<svg version="1.1" id="Calque_1" xmlns="http://www.w3.org/2000/svg" xmlns:xlink="http://www.w3.org/1999/xlink" x="0px" y="0px"
	 viewBox="0 0 595.3 841.9" enable-background="new 0 0 595.3 841.9" xml:space="preserve">
<path fill="#27BCEE" d="M297.6,156.4c-145.5,0-264.6,118.4-264.6,264.6s119.1,264.6,264.6,264.6s264.6-118.4,264.6-264.6
	S443.2,156.4,297.6,156.4z M410.7,348.8c-0.7,2-6,7.9-11.2,13.2c-9.3,9.3-9.9,10.6-9.9,18.5c0,11.9-6,37.7-11.2,51.6
	c-9.9,26.5-32.4,52.9-54.2,66.8c-31.1,19.2-72.8,23.8-107.2,12.6c-11.9-4-31.7-13.2-31.7-15.2c0-0.7,6-1.3,13.2-1.3
	c15.2,0,30.4-4.6,43.7-12.6l8.6-5.3l-9.9-3.3c-14.6-5.3-27.1-17.2-30.4-28.4c-0.7-4-0.7-4,8.6-4h9.3l-7.9-4
	c-9.9-4.6-18.5-13.2-22.5-21.8c-3.3-6.6-7.3-21.8-6-23.1c0.7-0.7,4,0.7,7.9,2c11.2,4,12.6,3.3,6-4c-11.9-13.2-15.9-32.4-9.9-50.9
	l2.6-7.9l11.2,11.2c21.8,22.5,47.6,35.7,77.4,39.7l7.9,1.3l-0.7-8.6c-1.3-21.8,11.2-41.7,31.7-49.6c7.3-2.6,19.8-3.3,28.4-0.7
	c3.3,0.7,9.3,4,13.9,7.3l7.9,6l8.6-2.6c5.3-1.3,11.9-4,14.6-6c2.6-1.3,5.3-2.6,5.3-2c0,3.3-6,13.2-11.2,18.5
	c-6.6,7.9-4.6,8.6,9.3,3.3C410.7,346.2,411.4,346.2,410.7,348.8z"/>
</svg>
